<svg xmlns="http://www.w3.org/2000/svg" width="24" height="24"  viewBox="0 0 24 24"><g transform="matrix(1 0 0 1 0 0)"  ><g style=""   ><g transform="matrix(1 0 0 1 12 10)"  ><path style="stroke: none; stroke-width: 1; stroke-dasharray: none; stroke-linecap: butt; stroke-dashoffset: 0; stroke-linejoin: miter; stroke-miterlimit: 4; fill: rgb(246,247,249); fill-rule: nonzero; opacity: 1;"  transform=" translate(-12, -10)" d="M 6.99512 12.9014 C 6.97243 12.6724 6.87117 12.4571 6.70703 12.293 C 6.51949 12.1054 6.26522 12 6 12 L 4 12 L 4 16 C 4 16.2652 4.10543 16.5195 4.29297 16.707 C 4.48051 16.8946 4.73478 17 5 17 L 6 17 C 6.26522 17 6.51949 16.8946 6.70703 16.707 C 6.87117 16.5429 6.97243 16.3276 6.99512 16.0986 L 7 16 L 7 13 L 6.99512 12.9014 Z M 9 16 L 8.98535 16.2969 C 8.91709 16.9835 8.61329 17.6289 8.12109 18.1211 C 7.55848 18.6837 6.79565 19 6 19 L 5 19 C 4.20435 19 3.44152 18.6837 2.87891 18.1211 C 2.3163 17.5585 2 16.7956 2 16 L 2 11 L 2.01172 10.5078 C 2.06814 9.36273 2.32107 8.23431 2.76074 7.17285 C 3.26329 5.95964 4.00015 4.85727 4.92871 3.92871 C 5.85727 3.00015 6.95964 2.26329 8.17285 1.76074 C 9.38611 1.2582 10.6868 1 12 1 C 13.3132 1 14.6139 1.2582 15.8271 1.76074 C 17.0404 2.26329 18.1427 3.00015 19.0713 3.92871 C 19.9998 4.85727 20.7367 5.95964 21.2393 7.17285 C 21.7418 8.38611 22 9.68678 22 11 L 22 16 C 22 16.7957 21.6837 17.5585 21.1211 18.1211 C 20.5585 18.6837 19.7957 19 19 19 L 18 19 C 17.2043 19 16.4415 18.6837 15.8789 18.1211 C 15.3867 17.6289 15.0829 16.9835 15.0146 16.2969 L 15 16 L 15 13 C 15 12.2043 15.3163 11.4415 15.8789 10.8789 C 16.4415 10.3163 17.2043 10 18 10 L 19.9346 10 C 19.8455 9.29314 19.6644 8.59946 19.3906 7.93848 C 18.9886 6.96795 18.4 6.08559 17.6572 5.34277 C 16.9144 4.59995 16.0321 4.01141 15.0615 3.60938 C 14.0909 3.20734 13.0506 3 12 3 C 10.9494 3 9.90908 3.20734 8.93848 3.60938 C 7.96795 4.01141 7.08559 4.59995 6.34277 5.34277 C 5.59995 6.08559 5.01141 6.96795 4.60938 7.93848 C 4.33559 8.59946 4.15452 9.29314 4.06543 10 L 6 10 C 6.79565 10 7.55848 10.3163 8.12109 10.8789 C 8.6837 11.4415 9 12.2044 9 13 L 9 16 Z M 17 16 L 17.0049 16.0986 C 17.0276 16.3276 17.1288 16.5429 17.293 16.707 C 17.4805 16.8946 17.7348 17 18 17 L 19 17 C 19.2652 17 19.5195 16.8946 19.707 16.707 C 19.8946 16.5195 20 16.2652 20 16 L 20 12 L 18 12 C 17.7348 12 17.4805 12.1054 17.293 12.293 C 17.1054 12.4805 17 12.7348 17 13 L 17 16 Z" stroke-linecap="round" /></g><g transform="matrix(1 0 0 1 16.5 19)"  ><path style="stroke: none; stroke-width: 1; stroke-dasharray: none; stroke-linecap: butt; stroke-dashoffset: 0; stroke-linejoin: miter; stroke-miterlimit: 4; fill: rgb(246,247,249); fill-rule: nonzero; opacity: 1;"  transform=" translate(-16.5, -19)" d="M 20 18 L 20 16 C 20 15.4477 20.4477 15 21 15 C 21.5523 15 22 15.4477 22 16 L 22 18 C 22 19.3261 21.4728 20.5975 20.5352 21.5352 C 19.5975 22.4728 18.3261 23 17 23 L 12 23 C 11.4477 23 11 22.5523 11 22 C 11 21.4477 11.4477 21 12 21 L 17 21 C 17.7956 21 18.5585 20.6837 19.1211 20.1211 C 19.6837 19.5585 20 18.7956 20 18 Z" stroke-linecap="round" /></g></g></g></svg>